<svg width="24" height="24" viewBox="0 0 24 24" fill="none" xmlns="http://www.w3.org/2000/svg">
    <path fill-rule="evenodd" clip-rule="evenodd"
        d="M10.5163 2.04287C10.6958 2.2764 10.722 2.59336 10.5832 2.85317C9.99927 3.94681 9.66792 5.19598 9.66792 6.52476C9.66792 10.8366 13.1633 14.332 17.4751 14.332C18.8039 14.332 20.0531 14.0006 21.1467 13.4167C21.4065 13.278 21.7235 13.3041 21.957 13.4836C22.1906 13.6631 22.2974 13.9627 22.2302 14.2494C21.1556 18.8349 17.0409 22.2499 12.1269 22.2499C6.39589 22.2499 1.75 17.604 1.75 11.873C1.75 6.95897 5.16505 2.84436 9.7505 1.76969C10.0373 1.70249 10.3368 1.80935 10.5163 2.04287ZM8.59638 3.72572C5.45025 5.09091 3.25 8.22571 3.25 11.873C3.25 16.7756 7.22431 20.7499 12.1269 20.7499C15.7742 20.7499 18.909 18.5497 20.2742 15.4035C19.3903 15.6819 18.4498 15.832 17.4751 15.832C12.3349 15.832 8.16792 11.665 8.16792 6.52476C8.16792 5.55009 8.31797 4.60963 8.59638 3.72572Z"
        fill="#3E63DD" />
</svg>
